<svg id="Layer_1" data-name="Layer 1" xmlns="http://www.w3.org/2000/svg" viewBox="0 0 512 512"><defs><style>.cls-1{fill:#ffefd6;}.cls-2{fill:#e2a379;}.cls-3{fill:#3d3c3c;}.cls-4{fill:#b3233b;}.cls-5{fill:#f4b382;}.cls-6{fill:#d6876b;}.cls-7{fill:#cc785e;}.cls-8{fill:#602f0f;}.cls-9{fill:#4c230c;}</style></defs><title>handstand</title><path class="cls-1" d="M7.92,256C7.92,119,119,7.92,256,7.92S504.08,119,504.08,256,393,504.08,256,504.08,7.92,393,7.92,256Z"/><path class="cls-2" d="M235,460.16c4.25-2.58,15.82-2.46,15.63-5-1.55-20.76.29-52,.29-52-1.48-20.75-12.27-60.74-10.6-68.5s17.58-6.15,17.88,1.82c1,9.29,2.22,13.69,3.22,23.29,1.5,11.9,3.34,36.9,2.35,43.76-.14.95-4.81,52.65-5.64,55.82-.91,3.46-3.12,2.56-10.25,2.56C241.51,461.91,231.12,462.5,235,460.16Z"/><path class="cls-3" d="M259.67,259.48s4.18-7.61,5.33-14.31a28.62,28.62,0,0,0-5.5-22.75s-30.66-7.84-31.72-.67c-2,13.49-4,24.13-5.17,30.67-.81,4.44,19.83,10.5,19.83,10.5Z"/><path class="cls-4" d="M221,326.08c-.42,12.27,9.83,15.41,16.5,28.5.84,1.64,8.44,6.08,12.4,6.17,4.41.09,8.94-.58,12.31-4.21,2.6-2.79,7.8-11.46,3.55-34.46-1.26-10.71-12-50.67-6.09-62.61,0,0-13.72,1.28-21.72-.72a66,66,0,0,1-15.33-6.33c-2.83,37.33,4.62,52.41,2.81,64.67C225.42,317.08,221.13,322.6,221,326.08Z"/><path class="cls-2" d="M240.63,359.89s3.19,8.86,5.19,16.86l13.4.92c-2.64-8-.74-18.75-.74-18.75-12.5,1.33-17.71-3-21-4.33Z"/><path class="cls-5" d="M251.64,404.33c3.22,5.5,8.91,5.29,12.3,4.79,10.5-1.54,13.65-6.71,16.58-13.81,3.88-9.39-19.39-23.17-23.89-24.08-11.72-2.35-22.15,10.87-24.86,16.92-3,6.66,0,5.93,2.82,6.83.11,0,.36.53.36.53a7.92,7.92,0,0,1,3.18,2,9.37,9.37,0,0,1,1.39.26c.3.1.48.2.46.6a7.72,7.72,0,0,0,.12,2.73C240.9,402.85,250.15,401.77,251.64,404.33Z"/><path class="cls-6" d="M238.63,393s-.66.49-1.95,3.54c0,.45.15,1.27,1.23,1.07C238.71,397.45,238,395.28,238.63,393Z"/><path class="cls-7" d="M238.63,393s-1.81,0-3.68,2.52a1.14,1.14,0,0,0,.23,1,1.06,1.06,0,0,0,1.51,0C238,393.49,238.63,393,238.63,393Z"/><path class="cls-8" d="M282.36,395.31c4.74-11.46-5.46-33.54-31.36-26-1.73.51-4.26,2.26-3.07,6.91a23.25,23.25,0,0,0,2.64,6.05c.55.82,1.14,1.7,1.8,2.63s6.67,2.62,6.37,3.87c-2.88,12,1.1,19.2,4.1,20.45C270.6,410.87,277.31,407.53,282.36,395.31Z"/><path class="cls-5" d="M254.66,381.75c-5.79-.4-6.9,1.63-7.89,4.77l8.6,1.56,3.81-.23C260.17,384.72,260.45,382.13,254.66,381.75Z"/><path class="cls-9" d="M272.35,370.17c3.39-1.73,8.41,1.8,11.2,7.87s2.32,12.4-1.08,14.13-6.92-1.57-9.72-7.64S269,371.9,272.35,370.17Z"/><path class="cls-8" d="M257.06,389.46a12.92,12.92,0,0,1,2.5.86,10.5,10.5,0,0,1,1.53.83l.18-3.82-1.47-.62s0,.4-.09,1.12c0,0,0-.07,0-.1a18.17,18.17,0,0,1-4.24.1S254,388.75,257.06,389.46Z"/><path class="cls-8" d="M273.45,368.42c3.58-1.82,9,2.1,12,8.75s2.65,13.52-.93,15.35-7.38-1.83-10.44-8.47S269.88,370.24,273.45,368.42Z"/><path class="cls-9" d="M282.84,374.52c.4-.2,1.48,1.28,2.41,3.31s1.37,3.84,1,4-1.22-1.08-2.16-3.11S282.45,374.72,282.84,374.52Z"/><path class="cls-5" d="M238,463.66c4.25-2.58,15.82-2.46,15.63-5-1.55-20.76-3-52-3-52-1.48-20.75-12.27-60.74-10.6-68.5S257.59,332,257.89,340c1,9.29,2.22,13.69,3.22,23.29,1.5,11.9,3.34,36.9,2.35,43.76-.14.95-1.51,52.65-2.35,55.82-.91,3.46-3.12,2.56-10.25,2.56C244.51,465.41,234.12,466,238,463.66Z"/><path class="cls-5" d="M252.33,46.56c4,1,2.1,18.41,3.31,21.33.6,1.45,2.76,2.9,2.83,6.38.09,4.57-3.58,7.09-3.47,8.72.56,8.34,5.18,31.36,5.73,41.44.13,2.33.19,5.25.2,7.7,0,9.95-20.16,4.3-19.82.72,1.38-14.38,3.32-49.68,4.41-54.8,0,0,.61-15.94,1.12-19.69C247,56.08,248.34,45.52,252.33,46.56Z"/><path class="cls-3" d="M259.21,164.5a209.36,209.36,0,0,0,1.73-32.37c-3.25,1.23-16.82,1.61-19.82.7-.24,3.59-3.75,31.3-3.75,31.3-1.09,8.77-13.8,60.41-11.51,76.45a71,71,0,0,0,2,10.83c1.56,5.85,34.11,2.51,35.36-5.57-1.13-17.64-3.89-49.92-4.93-58S259.21,164.5,259.21,164.5Z"/></svg>