<svg id="Layer_1" data-name="Layer 1" xmlns="http://www.w3.org/2000/svg" viewBox="0 0 512 512"><defs><style>.cls-1{fill:#ffefd6;}.cls-2{fill:#e2a379;}.cls-3{fill:#3d3c3c;}.cls-4{fill:#b3233b;}.cls-5{fill:#f4b382;}.cls-6{fill:#d6876b;}.cls-7{fill:#cc785e;}.cls-8{fill:#602f0f;}.cls-9{fill:#4c230c;}</style></defs><title>wheel pose</title><path class="cls-1" d="M7.92,256C7.92,119,119,7.92,256,7.92S504.08,119,504.08,256,393,504.08,256,504.08,7.92,393,7.92,256Z"/><path class="cls-2" d="M192.71,343.71c-6.12-2.08-15.4-2-15.5-4.58-.83-20.79-2.5-52-2.5-52,1.48-20.75,12.27-60.74,10.6-68.5s-17.58-6.15-17.87,1.82c-1,9.29-2.22,13.69-3.22,23.29-1.5,11.9-3.34,36.9-2.35,43.76l6.85,47a51.92,51.92,0,0,0,1,8.83c.91,3.46,3.17,2.71,10.25,3.54C185.08,347.47,197,345.16,192.71,343.71Z"/><path class="cls-3" d="M259.29,166.91s-22.26,23-17.8,30.39a25.14,25.14,0,0,1,1.34,3.5c5.43,15.28,17.74,15.07,19.77,17.6,1.63,2,18.29-10.76,24.56-19.31,0,0-7-17.74-11.44-23.64C272.54,171.17,259.29,166.91,259.29,166.91Z"/><path class="cls-4" d="M172.57,190.34c-9.22,8.11-8.42,13-12.39,27.15-.5,1.77,2.08,10.19,4.94,12.93a17.21,17.21,0,0,0,11.9,5.25c9.63.24,23.58-24.37,36.2-30.42,8.13-5,26.14-12.49,28.29-8l17.8-30.39c-49.83-9.76-67.73,12-77.38,19.8C181.92,186.71,175.18,188,172.57,190.34Z"/><path class="cls-2" d="M162.6,229.64s-1.63,3.95-5.16,10.47l12.52,11c.16-8.38,5.19-15.65,5.19-15.65-10.67-2.75-11.11-9.48-13.74-11.85Z"/><path class="cls-5" d="M159.15,268.92c.89,6.31,6.22,8.28,9.55,9.11,10.3,2.57,15.18-1,20.59-6.47,7.16-7.21-9.12-28.8-12.94-31.35-9.94-6.64-24.61,1.63-29.42,6.2-5.29,5-2.21,5.5,0,7.39.09.08.14.63.14.63a8,8,0,0,1,2.19,3,9.37,9.37,0,0,1,1.19.77c.24.21.37.37.2.73a7.75,7.75,0,0,0-.93,2.56C149.77,263.47,158.74,266,159.15,268.92Z"/><path class="cls-6" d="M151.43,253.5s-.79.2-3.15,2.53c-.16.43-.34,1.23.73,1.45C149.8,257.65,150,255.37,151.43,253.5Z"/><path class="cls-7" d="M151.43,253.5s-1.66-.72-4.36.93a1.15,1.15,0,0,0-.17,1,1.05,1.05,0,0,0,1.39.59C150.63,253.7,151.43,253.5,151.43,253.5Z"/><path class="cls-8" d="M191,272.26c8.74-8.8,7.7-33.1-19.13-35.95-1.79-.19-4.8.47-5.46,5.23a23.23,23.23,0,0,0,.14,6.6c.19,1,.41,2,.66,3.12s5.18,5,4.43,6c-7.21,10-6.29,18.17-4,20.46C174.19,282.18,181.67,281.64,191,272.26Z"/><path class="cls-5" d="M170.53,249.18c-5.21-2.57-7-1.12-9.11,1.41l7.35,4.72,3.61,1.23C174.49,254,175.74,251.75,170.53,249.18Z"/><path class="cls-9" d="M191.29,245.21c3.8-.31,7.09,4.86,7.37,11.54s-2.58,12.35-6.37,12.66-5.81-4.08-6.09-10.77S187.5,245.51,191.29,245.21Z"/><path class="cls-8" d="M169.81,257.23a13,13,0,0,1,2,1.74,10.07,10.07,0,0,1,1.09,1.35l1.62-3.47-1.12-1.13s-.19.36-.51,1l0-.09a18.25,18.25,0,0,1-4-1.52S167.25,255.41,169.81,257.23Z"/><path class="cls-8" d="M193,244c4-.32,7.48,5.35,7.79,12.66s-2.69,13.51-6.69,13.84-6.13-4.49-6.43-11.81S189,244.33,193,244Z"/><path class="cls-9" d="M199.34,253.22c.45,0,.88,1.75,1,4s-.19,4.08-.64,4.12-.72-1.47-.81-3.7S198.9,253.25,199.34,253.22Z"/><path class="cls-3" d="M241,199.42c5.38,13,18.35,17.57,18.35,17.57s28.84-5.53,26.8-12.49c-3.83-13.08-8.78-22.64-10.43-29.06l-13.3-5S238.33,192.95,241,199.42Z"/><path class="cls-5" d="M364.16,347.56l-32.25-.5c-7.5,0-5.25-8-3.25-9.75,1.22-1.07-19.27-40-21.33-45.66-3.41-9.35,15.53-12.93,16.79-9.56a496.06,496.06,0,0,1,16.54,52.21s23.44,5.23,26,8C368.16,343.94,369.51,346.66,364.16,347.56Z"/><path class="cls-3" d="M291.72,262.5c3.48,11,11.19,20.24,15.63,29.15,2.44-2.48,13.68-9.12,16.78-9.55-1.28-3.36-12.4-28.39-12.4-28.39-2.67-8.42-29.05-64.2-30.61-67.48s-3.17-6.89-5.38-10.79l-31.81,22c8.4,15.55,34.59,36.58,38.9,43.46S291.72,262.5,291.72,262.5Z"/><path class="cls-5" d="M182.83,345.62c-4.25-2.58-15.82-3.93-15.62-6.5,1.55-20.76,7.5-52,7.5-52,1.48-20.75,12.27-60.74,10.6-68.5s-17.58-6.15-17.87,1.82c-1,9.29-2.22,13.69-3.22,23.29-1.5,11.9-3.34,36.9-2.35,43.76.14.95-3,52.65-2.15,55.82.91,3.46,3.17,2.71,10.25,3.54C175.08,347.47,186.69,348,182.83,345.62Z"/></svg>